<?xml version="1.0" encoding="UTF-8"?>
<svg width="945px" height="226px" viewBox="0 0 945 226" version="1.1" xmlns="http://www.w3.org/2000/svg" xmlns:xlink="http://www.w3.org/1999/xlink">
    <!-- Generator: Sketch 40.3 (33839) - http://www.bohemiancoding.com/sketch -->
    <title>Group 27</title>
    <desc>Created with Sketch.</desc>
    <defs>
        <rect id="path-1" x="272" y="80" width="180" height="125" rx="10"></rect>
        <mask id="mask-2" maskContentUnits="userSpaceOnUse" maskUnits="objectBoundingBox" x="0" y="0" width="180" height="125" fill="white">
            <use xlink:href="#path-1"></use>
        </mask>
        <rect id="path-3" x="275" y="90" width="166" height="105.5"></rect>
        <mask id="mask-4" maskContentUnits="userSpaceOnUse" maskUnits="objectBoundingBox" x="0" y="0" width="166" height="105.5" fill="white">
            <use xlink:href="#path-3"></use>
        </mask>
        <rect id="path-5" x="0" y="75" width="70" height="130" rx="10"></rect>
        <mask id="mask-6" maskContentUnits="userSpaceOnUse" maskUnits="objectBoundingBox" x="0" y="0" width="70" height="130" fill="white">
            <use xlink:href="#path-5"></use>
        </mask>
        <rect id="path-7" x="7" y="87" width="56" height="105.5"></rect>
        <mask id="mask-8" maskContentUnits="userSpaceOnUse" maskUnits="objectBoundingBox" x="0" y="0" width="56" height="105.5" fill="white">
            <use xlink:href="#path-7"></use>
        </mask>
        <rect id="path-9" x="82" y="0" width="275" height="205" rx="10"></rect>
        <mask id="mask-10" maskContentUnits="userSpaceOnUse" maskUnits="objectBoundingBox" x="0" y="0" width="275" height="205" fill="white">
            <use xlink:href="#path-9"></use>
        </mask>
        <rect id="path-11" x="96" y="14" width="247" height="183.145455"></rect>
        <mask id="mask-12" maskContentUnits="userSpaceOnUse" maskUnits="objectBoundingBox" x="0" y="0" width="247" height="183.145455" fill="white">
            <use xlink:href="#path-11"></use>
        </mask>
        <rect id="path-13" x="56" y="186" width="326" height="19" rx="9.5"></rect>
        <mask id="mask-14" maskContentUnits="userSpaceOnUse" maskUnits="objectBoundingBox" x="0" y="0" width="326" height="19" fill="white">
            <use xlink:href="#path-13"></use>
        </mask>
        <rect id="path-15" x="183" y="186" width="73" height="11.8545455" rx="5.92727273"></rect>
        <mask id="mask-16" maskContentUnits="userSpaceOnUse" maskUnits="objectBoundingBox" x="0" y="0" width="73" height="11.8545455" fill="white">
            <use xlink:href="#path-15"></use>
        </mask>
    </defs>
    <g id="Page-1" stroke="none" stroke-width="1" fill="none" fill-rule="evenodd">
        <g id="Desktop-HD" transform="translate(-192.000000, -374.000000)">
            <g id="Group-27" transform="translate(192.000000, 374.000000)">
                <path d="M3,219.5 L943,219.5" id="Line" stroke="#657396" stroke-width="3" stroke-linecap="round" stroke-linejoin="round"></path>
                <path d="M2.5,226 L942.5,226 C943.880712,226 945,224.880712 945,223.5 C945,222.119288 943.880712,221 942.5,221 L2.5,221 C1.11928813,221 0,222.119288 0,223.5 C0,224.880712 1.11928813,226 2.5,226 L2.5,226 Z" id="Line" fill="#EBEFF8"></path>
                <g id="Group-25" transform="translate(136.000000, 0.000000)">
                    <g id="Group-10" fill="#F7FAFF">
                        <rect id="Rectangle-15" x="0" y="174.647328" width="636.073935" height="29.3575268" rx="14.6787634"></rect>
                        <rect id="Rectangle-15" x="30.9260652" y="115.932274" width="636.073935" height="29.3575268" rx="14.6787634"></rect>
                        <path d="M577.982228,145.289801 L93.621224,145.289801 L106.52737,145.289801 C114.62904,145.289801 121.196742,151.859925 121.196742,159.968564 C121.196742,168.075421 114.62516,174.647328 106.52737,174.647328 L93.621224,174.647328 L577.982228,174.647328 L568.007855,174.647328 C559.899188,174.647328 553.325815,168.077204 553.325815,159.968564 C553.325815,151.861707 559.903151,145.289801 568.007855,145.289801 L577.982228,145.289801 Z" id="Combined-Shape"></path>
                        <rect id="Rectangle-15" x="70.6039851" y="58.7150535" width="525.17686" height="29.3575268" rx="14.6787634"></rect>
                        <rect id="Rectangle-15" x="96.1382082" y="0" width="472.016213" height="29.3575268" rx="14.6787634"></rect>
                        <path d="M547.819255,29.3575268 L147.897258,29.3575268 L155.993498,29.3575268 C164.099402,29.3575268 170.670535,35.9276505 170.670535,44.0362902 C170.670535,52.1431473 164.095272,58.7150535 155.993498,58.7150535 L147.897258,58.7150535 L547.819255,58.7150535 L542.140247,58.7150535 C534.032319,58.7150535 527.459546,52.1449298 527.459546,44.0362902 C527.459546,35.929433 534.037263,29.3575268 542.140247,29.3575268 L547.819255,29.3575268 Z" id="Combined-Shape"></path>
                        <path d="M583.945619,88.0725803 L81.4064921,88.0725803 L95.3458213,88.0725803 C103.452995,88.0725803 110.025157,94.642704 110.025157,102.751344 C110.025157,110.858201 103.462762,117.430107 95.3458213,117.430107 L81.4064921,117.430107 L583.945619,117.430107 L573.041957,117.430107 C564.934223,117.430107 558.361606,110.859983 558.361606,102.751344 C558.361606,94.6444865 564.933116,88.0725803 573.041957,88.0725803 L583.945619,88.0725803 Z" id="Combined-Shape"></path>
                    </g>
                    <g id="Group-19" transform="translate(118.000000, 16.000000)">
                        <use id="Rectangle-7" stroke="#657396" mask="url(#mask-2)" stroke-width="6" fill="#FFFFFF" xlink:href="#path-1"></use>
                        <use id="Rectangle-7" stroke="#657396" mask="url(#mask-4)" stroke-width="6" fill="#FBFCFF" xlink:href="#path-3"></use>
                        <rect id="Rectangle-15" fill="#EBEFF8" x="340" y="97" width="93.6503906" height="12" rx="3"></rect>
                        <rect id="Rectangle-15" fill="#EBEFF8" x="340" y="116" width="93.6503906" height="54" rx="3"></rect>
                        <rect id="Rectangle-15" fill="#EBEFF8" x="340" y="177" width="93.6503906" height="12" rx="3"></rect>
                        <use id="Rectangle-7" stroke="#657396" mask="url(#mask-6)" stroke-width="6" fill="#FFFFFF" xlink:href="#path-5"></use>
                        <use id="Rectangle-7" stroke="#657396" mask="url(#mask-8)" stroke-width="6" fill="#FBFCFF" xlink:href="#path-7"></use>
                        <use id="Rectangle-7" stroke="#657396" mask="url(#mask-10)" stroke-width="6" fill="#FFFFFF" xlink:href="#path-9"></use>
                        <use id="Rectangle-7" stroke="#657396" mask="url(#mask-12)" stroke-width="6" fill="#FBFDFF" xlink:href="#path-11"></use>
                        <rect id="Rectangle-15" fill="#EBEFF8" x="116" y="32" width="65" height="12" rx="6"></rect>
                        <rect id="Rectangle-15" fill="#EBEFF8" x="14" y="94" width="42" height="12" rx="3"></rect>
                        <rect id="Rectangle-15" fill="#EBEFF8" x="14" y="113" width="42" height="54" rx="3"></rect>
                        <rect id="Rectangle-15" fill="#EBEFF8" x="14" y="174" width="42" height="12" rx="3"></rect>
                        <rect id="Rectangle-15" fill="#EBEFF8" x="116" y="56" width="205" height="12" rx="6"></rect>
                        <rect id="Rectangle-15" fill="#EBEFF8" x="117" y="80" width="64" height="94" rx="4"></rect>
                        <rect id="Rectangle-15" fill="#EBEFF8" x="194" y="80" width="127" height="94" rx="4"></rect>
                        <rect id="Rectangle-15" fill="#EBEFF8" x="194.25" y="32" width="31.6823028" height="12" rx="6"></rect>
                        <rect id="Rectangle-15" fill="#EBEFF8" x="241.908849" y="32" width="31.6823028" height="12" rx="6"></rect>
                        <rect id="Rectangle-15" fill="#EBEFF8" x="289.567697" y="32" width="31.6823028" height="12" rx="6"></rect>
                        <use id="Rectangle-7" stroke="#657396" mask="url(#mask-14)" stroke-width="6" stroke-linecap="round" stroke-linejoin="round" fill="#FFFFFF" xlink:href="#path-13"></use>
                        <use id="Rectangle-7" stroke="#657396" mask="url(#mask-16)" stroke-width="6" fill="#FFFFFF" xlink:href="#path-15"></use>
                        <path d="M29.5,82.5 L40.5,82.5" id="Line" stroke="#EAEEF7" stroke-width="3" stroke-linecap="round"></path>
                    </g>
                    <g id="Group-18" transform="translate(272.000000, 46.000000)">
                        <path d="M42.90625,123.289062 C42.90625,123.289062 35.3867188,132.244141 35.3867188,146.914062" id="Path-111" stroke="#657396" stroke-width="3" stroke-linecap="round"></path>
                        <rect id="Rectangle-51" fill="#657396" transform="translate(33.038882, 151.135515) rotate(54.000000) translate(-33.038882, -151.135515) " x="29.9514309" y="143.245363" width="6.17490167" height="15.7803043" rx="3.08745084"></rect>
                        <path d="M93.1474609,123 C93.1474609,123 85,126.555664 85,141.225586" id="Path-111" stroke="#657396" stroke-width="3" stroke-linecap="round" transform="translate(89.073730, 132.112793) scale(-1, 1) translate(-89.073730, -132.112793) "></path>
                        <rect id="Rectangle-51" fill="#657396" transform="translate(96.740994, 145.886492) scale(-1, 1) rotate(70.000000) translate(-96.740994, -145.886492) " x="93.6535432" y="137.99634" width="6.17490167" height="15.7803043" rx="3.08745084"></rect>
                        <g id="Group-17">
                            <g id="Group-12" transform="translate(27.000000, 0.000000)">
                                <g id="Group-11">
                                    <path d="M9.99324535,4.26325641e-14 L24.6825332,4.26325641e-14 C24.6825332,6.52137833 29.9438277,11.808 36.4339634,11.808 C42.9240992,11.808 48.1853937,6.52137833 48.1853937,5.68434189e-14 L63.8539674,4.26325641e-14 C63.8539674,4.34758555 67.3614971,7.872 71.6882542,7.872 C72.0198995,7.872 72.3467317,7.85129336 72.6675401,7.81109655 L72.6675401,113.220903 C72.3467317,113.180707 72.0198995,113.16 71.6882542,113.16 C67.3614971,113.16 63.8539674,116.684414 63.8539674,121.032 C63.8539674,121.71155 63.9396608,122.370988 64.1007817,123 L48.0229136,123 C48.1297726,122.35999 48.1853937,121.702522 48.1853937,121.032 C48.1853937,114.510622 42.9240992,109.224 36.4339634,109.224 C29.9438277,109.224 24.6825332,114.510622 24.6825332,121.032 C24.6825332,121.702522 24.7381543,122.35999 24.8450132,123 L9.74643107,123 C9.90755196,122.370988 9.99324535,121.71155 9.99324535,121.032 C9.99324535,116.684414 6.48571566,113.16 2.15895851,113.16 C1.48266454,113.16 0.826385337,113.246106 0.200386799,113.408002 L0.200386799,7.62399759 C0.826385337,7.78589409 1.48266454,7.872 2.15895851,7.872 C6.48571566,7.872 9.99324535,4.34758555 9.99324535,2.08721929e-13 Z" id="Combined-Shape" stroke="#657396" stroke-width="3" stroke-linejoin="round" fill="#FFFFFF"></path>
                                    <rect id="Rectangle-46" fill="#EBEFF8" x="9.59124088" y="101.608696" width="53.0470507" height="1.60434783" rx="0.802173913"></rect>
                                    <path d="M14.4510693,22.331987 L14.4510693,21.3308739 L10.308719,21.3308739 L10.308719,22.331987 L11.7564635,22.331987 L11.7564635,26.2043478 L12.9894708,26.2043478 L12.9894708,22.331987 L14.4510693,22.331987 Z M21.5389964,26.2043478 L21.5389964,21.3378261 L20.3059891,21.3378261 L20.3059891,26.2043478 L21.5389964,26.2043478 Z M30.1093029,21.296113 C28.6338504,21.296113 27.5186022,22.3528435 27.5186022,23.7571826 C27.5186022,25.1823783 28.6061423,26.2599652 30.0677409,26.2599652 C30.7812226,26.2599652 31.5501204,25.9054043 32.069646,25.370087 L31.3492372,24.6053478 C31.0098139,24.9529565 30.5387774,25.1754261 30.1300839,25.1754261 C29.3611861,25.1754261 28.7793175,24.5566826 28.7793175,23.7432783 C28.7793175,22.9437783 29.3611861,22.331987 30.1300839,22.331987 C30.5595584,22.331987 31.0305949,22.575313 31.3492372,22.9646348 L32.062719,22.1164696 C31.5778285,21.615913 30.8297117,21.296113 30.1093029,21.296113 L30.1093029,21.296113 Z M41.1179161,26.2043478 L42.5933686,26.2043478 L40.6745876,23.3539565 L42.4756095,21.3378261 L41.048646,21.3378261 L39.192208,23.4443348 L39.192208,21.3378261 L37.9592007,21.3378261 L37.9592007,26.2043478 L39.192208,26.2043478 L39.192208,25.0085739 L39.8364197,24.2925 L41.1179161,26.2043478 Z M52.2581423,22.3111304 L52.2581423,21.3378261 L48.4621423,21.3378261 L48.4621423,26.2043478 L52.3343394,26.2043478 L52.3343394,25.2310435 L49.6951496,25.2310435 L49.6951496,24.250787 L52.0087701,24.250787 L52.0087701,23.2774826 L49.6951496,23.2774826 L49.6951496,22.3111304 L52.2581423,22.3111304 Z M62.1653613,22.331987 L62.1653613,21.3308739 L58.0230109,21.3308739 L58.0230109,22.331987 L59.4707555,22.331987 L59.4707555,26.2043478 L60.7037628,26.2043478 L60.7037628,22.331987 L62.1653613,22.331987 Z" id="TICKET" fill="#657396"></path>
                                    <rect id="Rectangle-46" fill="#EBEFF8" x="9.59124088" y="43.8521739" width="53.0470507" height="12.0133565" rx="6.00667826"></rect>
                                    <rect id="Rectangle-46" fill="#EBEFF8" x="9.59124088" y="63.6391304" width="53.0470507" height="12.0133565" rx="6.00667826"></rect>
                                    <rect id="Rectangle-46" fill="#EBEFF8" x="9.59124088" y="82.8913043" width="53.0470507" height="12.0133565" rx="6.00667826"></rect>
                                </g>
                                <ellipse id="Oval-16" fill="#657396" cx="19.7160112" cy="49.5174122" rx="2.99089312" ry="2.98898593"></ellipse>
                                <rect id="Rectangle-51" fill="#EBEFF8" x="15.4525547" y="33.1565217" width="9.05839416" height="3.72754857" rx="1.86377428"></rect>
                                <rect id="Rectangle-51" fill="#EBEFF8" x="49.5547445" y="33.1565217" width="9.05839416" height="3.72754857" rx="1.86377428"></rect>
                                <path d="M53.2853543,52.5063981 C54.9371789,52.5063981 56.2762474,51.1681836 56.2762474,49.5174122 C56.2762474,47.8666409 54.9371789,46.5284263 53.2853543,46.5284263 C51.6335296,46.5284263 50.2944611,47.8666409 50.2944611,49.5174122 C50.2944611,51.1681836 51.6335296,52.5063981 53.2853543,52.5063981 Z" id="Oval-16" fill="#657396"></path>
                            </g>
                            <path d="M63.5,60.4978195 C66.5375661,60.4978195 69,58.045864 69,55.0212237 C65.9894169,54.9872614 64.9516414,54.9992137 63.5,55.0212237 C62.023028,55.0274946 61.2837262,55.0190648 58,55.0212237 C58,58.045864 60.4624339,60.4978195 63.5,60.4978195 Z" id="Oval-15" stroke="#657396" stroke-width="2" stroke-linejoin="round" fill="#FF8C82"></path>
                            <path d="M26.5,50.5 L6.5,23.5" id="Line" stroke="#657396" stroke-width="3" stroke-linecap="round"></path>
                            <path d="M120.5,50.5 L100.5,23.5" id="Line" stroke="#657396" stroke-width="3" stroke-linecap="round" transform="translate(110.500000, 37.000000) scale(-1, 1) translate(-110.500000, -37.000000) "></path>
                            <circle id="Oval-47" fill="#657396" cx="5" cy="21" r="5"></circle>
                            <circle id="Oval-47" fill="#657396" cx="122" cy="21" r="5"></circle>
                        </g>
                    </g>
                </g>
            </g>
        </g>
    </g>
</svg>