<?xml version="1.0" encoding="UTF-8"?>
<svg width="938px" height="415px" viewBox="0 0 938 415" version="1.1" xmlns="http://www.w3.org/2000/svg" xmlns:xlink="http://www.w3.org/1999/xlink">
    <!-- Generator: Sketch 40.3 (33839) - http://www.bohemiancoding.com/sketch -->
    <title>Group 26</title>
    <desc>Created with Sketch.</desc>
    <defs></defs>
    <g id="Page-1" stroke="none" stroke-width="1" fill="none" fill-rule="evenodd">
        <g id="Desktop-HD" transform="translate(-180.000000, -135.000000)">
            <g id="Group-26" transform="translate(180.000000, 135.000000)">
                <path d="M195.3125,167.6875 L195.3125,161.3125 C195.3125,158.3773 192.934013,156 190,156 C187.071957,156 184.6875,158.378487 184.6875,161.3125 L184.6875,167.6875 L178.3125,167.6875 C175.3773,167.6875 173,170.065987 173,173 C173,175.928043 175.378487,178.3125 178.3125,178.3125 L184.6875,178.3125 L184.6875,184.6875 C184.6875,187.6227 187.065987,190 190,190 C192.928043,190 195.3125,187.621513 195.3125,184.6875 L195.3125,178.3125 L201.6875,178.3125 C204.6227,178.3125 207,175.934013 207,173 C207,170.071957 204.621513,167.6875 201.6875,167.6875 L195.3125,167.6875 Z" id="Combined-Shape" fill="#FBCED5"></path>
                <path d="M14.4375,244.5625 L14.4375,240.4375 C14.4375,238.546997 12.8984788,237 11,237 C9.1053842,237 7.5625,238.539021 7.5625,240.4375 L7.5625,244.5625 L3.4375,244.5625 C1.54699728,244.5625 3.2673447e-16,246.101521 2.10486169e-16,248 C9.44744096e-17,249.894616 1.53902117,251.4375 3.4375,251.4375 L7.5625,251.4375 L7.5625,255.5625 C7.5625,257.453003 9.10152117,259 11,259 C12.8946158,259 14.4375,257.460979 14.4375,255.5625 L14.4375,251.4375 L18.5625,251.4375 C20.4530027,251.4375 22,249.898479 22,248 C22,246.105384 20.4609788,244.5625 18.5625,244.5625 L14.4375,244.5625 Z" id="Combined-Shape" fill="#FBCED5"></path>
                <circle id="Oval-93" fill="#E1E9FB" cx="102" cy="109" r="19"></circle>
                <circle id="Oval-93" fill="#E1E9FB" cx="142.5" cy="287.5" r="9.5"></circle>
                <circle id="Oval-93" fill="#E1E9FB" cx="9" cy="384" r="6"></circle>
                <circle id="Oval-93" fill="#E1E9FB" cx="485" cy="19" r="15"></circle>
                <circle id="Oval-93" fill="#E1E9FB" cx="842.5" cy="96.5" r="9.5"></circle>
                <ellipse id="Oval-93" fill="#E1E9FB" cx="833.5" cy="307.5" rx="14.5" ry="14.5"></ellipse>
                <path d="M769.59375,180.40625 L769.59375,173.09375 C769.59375,169.726903 766.865485,167 763.5,167 C760.141363,167 757.40625,169.728265 757.40625,173.09375 L757.40625,180.40625 L750.09375,180.40625 C746.726903,180.40625 744,183.134515 744,186.5 C744,189.858637 746.728265,192.59375 750.09375,192.59375 L757.40625,192.59375 L757.40625,199.90625 C757.40625,203.273097 760.134515,206 763.5,206 C766.858637,206 769.59375,203.271735 769.59375,199.90625 L769.59375,192.59375 L776.90625,192.59375 C780.273097,192.59375 783,189.865485 783,186.5 C783,183.141363 780.271735,180.40625 776.90625,180.40625 L769.59375,180.40625 Z" id="Combined-Shape" fill="#FBCED5"></path>
                <path d="M928.71875,397.28125 L928.71875,392.21875 C928.71875,389.898588 926.829951,388 924.5,388 C922.17479,388 920.28125,389.888799 920.28125,392.21875 L920.28125,397.28125 L915.21875,397.28125 C912.898588,397.28125 911,399.170049 911,401.5 C911,403.82521 912.888799,405.71875 915.21875,405.71875 L920.28125,405.71875 L920.28125,410.78125 C920.28125,413.101412 922.170049,415 924.5,415 C926.82521,415 928.71875,413.111201 928.71875,410.78125 L928.71875,405.71875 L933.78125,405.71875 C936.101412,405.71875 938,403.829951 938,401.5 C938,399.17479 936.111201,397.28125 933.78125,397.28125 L928.71875,397.28125 Z" id="Combined-Shape" fill="#FBCED5"></path>
                <path d="M662.09375,14.90625 L662.09375,10.59375 C662.09375,8.61731534 660.484773,7 658.5,7 C656.519265,7 654.90625,8.60897668 654.90625,10.59375 L654.90625,14.90625 L650.59375,14.90625 C648.617315,14.90625 647,16.5152267 647,18.5 C647,20.4807347 648.608977,22.09375 650.59375,22.09375 L654.90625,22.09375 L654.90625,26.40625 C654.90625,28.3826847 656.515227,30 658.5,30 C660.480735,30 662.09375,28.3910233 662.09375,26.40625 L662.09375,22.09375 L666.40625,22.09375 C668.382685,22.09375 670,20.4847733 670,18.5 C670,16.5192653 668.391023,14.90625 666.40625,14.90625 L662.09375,14.90625 Z" id="Combined-Shape" fill="#FBCED5"></path>
                <path d="M299.15625,5.84375 L299.15625,2.65625 C299.15625,1.19540699 297.967006,0 296.5,0 C295.035979,0 293.84375,1.18924363 293.84375,2.65625 L293.84375,5.84375 L290.65625,5.84375 C289.195407,5.84375 288,7.03299363 288,8.5 C288,9.9640213 289.189244,11.15625 290.65625,11.15625 L293.84375,11.15625 L293.84375,14.34375 C293.84375,15.804593 295.032994,17 296.5,17 C297.964021,17 299.15625,15.8107564 299.15625,14.34375 L299.15625,11.15625 L302.34375,11.15625 C303.804593,11.15625 305,9.96700637 305,8.5 C305,7.0359787 303.810756,5.84375 302.34375,5.84375 L299.15625,5.84375 Z" id="Combined-Shape" fill="#FBCED5"></path>
            </g>
        </g>
    </g>
</svg>