<?xml version="1.0" encoding="UTF-8"?>
<svg width="134px" height="27px" viewBox="0 0 134 27" version="1.1" xmlns="http://www.w3.org/2000/svg" xmlns:xlink="http://www.w3.org/1999/xlink">
    <!-- Generator: Sketch 40.3 (33839) - http://www.bohemiancoding.com/sketch -->
    <title>Layer_1</title>
    <desc>Created with Sketch.</desc>
    <defs>
        <linearGradient x1="73.9328512%" y1="24.631574%" x2="18.2701446%" y2="73.7397919%" id="linearGradient-1">
            <stop stop-color="#000000" stop-opacity="0" offset="17.91%"></stop>
            <stop stop-color="#000000" stop-opacity="0.6" offset="100%"></stop>
        </linearGradient>
    </defs>
    <g id="Page-1" stroke="none" stroke-width="1" fill="none" fill-rule="evenodd">
        <g id="Desktop-HD" transform="translate(-66.000000, -36.000000)">
            <g id="Group-6" transform="translate(65.000000, 30.000000)">
                <g id="logo" transform="translate(0.000000, 6.000000)">
                    <g id="Layer_1">
                        <g id="Group" transform="translate(27.000000, 2.000000)" fill="#515151">
                            <g>
                                <path d="M24.17,4 L20.24,12.77 L16.31,4 L13.97,4 C13.97,4 17.22,11.6 18.51,14.6 C18.901,15.491 19.531,16.34 20.231,16.361 L20.241,16.361 L20.251,16.361 C20.951,16.34 21.581,15.491 21.971,14.6 C23.272,11.6 26.511,4 26.511,4 L24.17,4 L24.17,4 Z" id="Shape"></path>
                                <path d="M101.96,14.22 C99.79,14.22 98.03,12.47 98.03,10.31 C98.03,8.161 99.79,6.411 101.96,6.411 C104.13,6.411 105.89,8.161 105.89,10.31 C105.89,12.47 104.13,14.22 101.96,14.22 L101.96,14.22 Z M106,0 L106,5.5 C104.94,4.58 103.479,4.31 101.96,4.31 C98.62,4.31 95.91,6.991 95.91,10.31 C95.91,13.63 98.63,16.321 101.97,16.321 C105.17,16.321 107.79,13.85 108,10.731 L108,0 L106,0 L106,0 Z" id="Shape"></path>
                                <path d="M6.85,6.85 C8.47,6.85 9.861,7.611 10.46,9 L3.24,9 C3.84,7.61 5.229,6.85 6.85,6.85 L6.85,6.85 Z M12.86,11 C12.88,10.81 12.9,10.63 12.9,10.43 C12.9,7.111 10.19,4.31 6.849,4.31 C3.509,4.31 0.799,6.991 0.799,10.31 C0.799,13.63 3.509,16.34 6.849,16.34 C9.219,16.34 11.249,14.97 12.24,13 L9.7,13 C8.979,13.76 7.979,14.36 6.849,14.36 C4.879,14.36 3.24,12.889 2.959,11 L10.719,11 L12.86,11 L12.86,11 Z" id="Shape"></path>
                                <path d="M33.94,6.85 C35.559,6.85 36.96,7.611 37.559,9 L30.32,9 C30.93,7.61 32.32,6.85 33.94,6.85 L33.94,6.85 Z M39.01,11 L39.95,11 C39.97,10.81 39.99,10.51 39.99,10.31 C39.99,6.991 37.28,4.31 33.94,4.31 C30.599,4.31 27.889,6.991 27.889,10.31 C27.889,13.63 30.599,16.34 33.94,16.34 C36.309,16.34 38.339,14.97 39.33,13 L36.79,13 C36.07,13.76 35.07,14.35 33.94,14.35 C31.969,14.35 30.33,12.88 30.049,11 L39.01,11 L39.01,11 Z" id="Shape"></path>
                                <path d="M72.22,14.22 C70.05,14.22 68.29,12.47 68.29,10.31 C68.29,8.161 70.05,6.411 72.22,6.411 C74.39,6.411 76.16,8.161 76.16,10.31 C76.16,12.47 74.39,14.22 72.22,14.22 L72.22,14.22 Z M77.99,10.31 C77.99,6.991 75.559,4.31 72.219,4.31 C68.879,4.31 66.169,6.991 66.169,10.31 C66.169,13.63 68.709,16.321 72.049,16.321 C73.559,16.321 74.94,15.77 75.999,14.861 L75.999,17.97 C75.999,20.14 74.228,21.93 72.039,21.93 C69.859,21.93 68.259,20.17 68.259,18 L66.139,18 C66.139,21.33 68.57,24.03 71.929,24.03 C75.28,24.03 77.999,21.3 77.999,17.969 L77.999,10.309 L77.99,10.309 L77.99,10.31 Z" id="Shape"></path>
                                <path d="M45,16 L45,9.32 C45,7.57 47.04,6.45 48.8,6.45 C50.571,6.45 52,7.87 52,9.62 L52,16 L54,16 L54,9.32 C54,6.41 51.57,4.349 48.64,4.349 C45.701,4.349 43,6.709 43,9.62 L43,16 L45,16 L45,16 Z" id="Shape"></path>
                                <path d="M88,4.36 L86.271,4.36 C83.331,4.36 81,6.719 81,9.639 L81,16 L83,16 L83,9.33 C83,7.58 84.39,6.46 86.15,6.46 L88,6.46 L88,4.36 L88,4.36 Z" id="Shape"></path>
                                <path d="M62.09,14.2 C60.32,14.2 59,12.78 59,11.03 L59,6 L64,6 L64,4 L59,4 L59,0 L57,0 L57,10.74 C57,13.66 59.271,16.309 62.2,16.309 L64,16.309 L64,14.2 L62.09,14.2 L62.09,14.2 Z" id="Shape"></path>
                                <rect id="Rectangle-path" x="91" y="4" width="2" height="12"></rect>
                            </g>
                            <path d="M93.229,1.42 C93.229,2.07 92.69,2.6 92.03,2.6 C91.37,2.6 90.84,2.071 90.84,1.42 C90.84,0.76 91.37,0.231 92.03,0.231 C92.69,0.231 93.229,0.76 93.229,1.42 L93.229,1.42 Z" id="Shape"></path>
                        </g>
                        <g id="Group">
                            <path d="M4.51,8 C5.24,5.32 7.72,3.35 10.68,3.34 C13.63,3.35 16.12,5.32 16.84,8 L4.51,8 L4.51,8 Z M10.68,0 C5.33,0 1,4.12 1,9.38 C1,9.93 1.05,10.47 1.14,11 L10.68,11 L16.85,11 C16.64,11.75 16.3,12.45 15.84,13.07 C15.67,13.299 15.14,14.08 14.5,14.809 C14.13,15.219 12.25,17.289 10.68,19.019 L8.48,21.429 L10.541,23.629 L10.681,23.769 L10.811,23.629 L12.881,21.429 C14.241,19.95 15.942,18.119 16.991,16.929 C17.661,16.159 18.18,15.549 18.511,15.119 C19.362,13.959 19.961,12.609 20.211,11.139 C20.311,10.619 20.361,10.07 20.361,9.519 C20.35,4.26 16.021,0 10.68,0 L10.68,0 Z" id="Shape" fill="#EC665B"></path>
                            <path d="M4.51,8 C5.24,5.32 7.72,3.35 10.68,3.34 C13.63,3.35 16.12,5.32 16.84,8 L4.51,8 L4.51,8 Z M10.68,0 C5.33,0 1,4.12 1,9.38 C1,9.93 1.05,10.47 1.14,11 L10.68,11 L16.85,11 C16.64,11.75 16.3,12.45 15.84,13.07 C15.67,13.299 15.14,14.08 14.5,14.809 C14.13,15.219 10.68,19.019 10.68,19.019 L12.88,21.429 C12.88,21.429 15.941,18.119 16.99,16.929 C17.66,16.159 18.179,15.549 18.51,15.119 C19.361,13.959 19.96,12.609 20.21,11.139 C20.31,10.619 20.36,10.07 20.36,9.519 C20.35,4.26 16.021,0 10.68,0 L10.68,0 Z" id="Shape" fill="url(#linearGradient-1)"></path>
                            <path d="M10.68,3.44 C13.63,3.44 16.12,5.32 16.84,8 L4.51,8 C5.24,5.32 7.72,3.44 10.68,3.44 L10.68,3.44 Z M20.21,11 C20.31,10.47 20.36,9.93 20.36,9.38 C20.349,4.12 16.02,0 10.679,0 C5.329,0 0.999,4.26 0.999,9.52 C0.999,10.071 1.049,10.621 1.139,11.14 C1.4,12.611 1.99,13.96 2.849,15.12 C3.169,15.55 3.7,16.16 4.37,16.93 C5.42,18.12 7.11,19.951 8.479,21.43 L10.54,23.63 L10.68,23.77 L10.81,23.63 L12.871,21.43 L10.681,19.02 C9.112,17.291 7.221,15.22 6.862,14.81 C6.221,14.081 5.692,13.3 5.511,13.071 C5.061,12.451 4.711,11.751 4.511,11.001 L10.681,11.001 L20.21,11.001 L20.21,11 Z" id="Shape" fill="#EC665B"></path>
                        </g>
                    </g>
                </g>
            </g>
        </g>
    </g>
</svg>