<?xml version="1.0" encoding="UTF-8"?>
<svg width="316px" height="263px" viewBox="0 0 316 263" version="1.1" xmlns="http://www.w3.org/2000/svg" xmlns:xlink="http://www.w3.org/1999/xlink">
    <!-- Generator: Sketch 40.3 (33839) - http://www.bohemiancoding.com/sketch -->
    <title>Group 15</title>
    <desc>Created with Sketch.</desc>
    <defs>
        <rect id="path-1" x="0" y="0" width="316" height="16" rx="8"></rect>
        <mask id="mask-2" maskContentUnits="userSpaceOnUse" maskUnits="objectBoundingBox" x="0" y="0" width="316" height="16" fill="white">
            <use xlink:href="#path-1"></use>
        </mask>
    </defs>
    <g id="Page-1" stroke="none" stroke-width="1" fill="none" fill-rule="evenodd">
        <g id="Desktop-HD" transform="translate(-313.000000, -1489.000000)">
            <g id="Group-15" transform="translate(313.000000, 1489.000000)">
                <rect id="Rectangle-7" fill="#EBEFF8" x="17" y="13" width="283" height="250" rx="10"></rect>
                <use id="Rectangle-122" stroke="#657396" mask="url(#mask-2)" stroke-width="6" fill="#98A6C7" xlink:href="#path-1"></use>
                <path d="M278.345401,256 L270.938182,256 C271.076259,255.405409 271.149254,254.785856 271.149254,254.149254 C271.149254,249.648545 267.500709,246 263,246 C258.499291,246 254.850746,249.648545 254.850746,254.149254 C254.850746,254.785856 254.923741,255.405409 255.061818,256 L247.654599,256 C247.792676,255.405409 247.865672,254.785856 247.865672,254.149254 C247.865672,249.648545 244.217126,246 239.716418,246 C235.215709,246 231.567164,249.648545 231.567164,254.149254 C231.567164,254.785856 231.640159,255.405409 231.778236,256 L224.371017,256 C224.509094,255.405409 224.58209,254.785856 224.58209,254.149254 C224.58209,249.648545 220.933544,246 216.432836,246 C211.932127,246 208.283582,249.648545 208.283582,254.149254 C208.283582,254.785856 208.356577,255.405409 208.494654,256 L201.087435,256 C201.225512,255.405409 201.298507,254.785856 201.298507,254.149254 C201.298507,249.648545 197.649962,246 193.149254,246 C188.648545,246 185,249.648545 185,254.149254 C185,254.785856 185.072995,255.405409 185.211072,256 L177.788928,256 C177.927005,255.405409 178,254.785856 178,254.149254 C178,249.648545 174.351455,246 169.850746,246 C165.350038,246 161.701493,249.648545 161.701493,254.149254 C161.701493,254.785856 161.774488,255.405409 161.912565,256 L154.505346,256 C154.643423,255.405409 154.716418,254.785856 154.716418,254.149254 C154.716418,249.648545 151.067873,246 146.567164,246 C142.066456,246 138.41791,249.648545 138.41791,254.149254 C138.41791,254.785856 138.490906,255.405409 138.628983,256 L131.221764,256 C131.359841,255.405409 131.432836,254.785856 131.432836,254.149254 C131.432836,249.648545 127.784291,246 123.283582,246 C118.782874,246 115.134328,249.648545 115.134328,254.149254 C115.134328,254.785856 115.207324,255.405409 115.345401,256 L107.938182,256 C108.076259,255.405409 108.149254,254.785856 108.149254,254.149254 C108.149254,249.648545 104.500709,246 100,246 C95.4992914,246 91.8507463,249.648545 91.8507463,254.149254 C91.8507463,254.785856 91.9237414,255.405409 92.0618185,256 L84.6545994,256 C84.7926765,255.405409 84.8656716,254.785856 84.8656716,254.149254 C84.8656716,249.648545 81.2171265,246 76.7164179,246 C72.2157094,246 68.5671642,249.648545 68.5671642,254.149254 C68.5671642,254.785856 68.6401593,255.405409 68.7782364,256 L61.3710174,256 C61.5090944,255.405409 61.5820896,254.785856 61.5820896,254.149254 C61.5820896,249.648545 57.9335444,246 53.4328358,246 C48.9321273,246 45.2835821,249.648545 45.2835821,254.149254 C45.2835821,254.785856 45.3565773,255.405409 45.4946543,256 L38.0874353,256 C38.2255123,255.405409 38.2985075,254.785856 38.2985075,254.149254 C38.2985075,249.648545 34.6499623,246 30.1492537,246 C25.6485452,246 22,249.648545 22,254.149254 C22,254.785856 22.0729952,255.405409 22.2110722,256 L18.0029514,256 C12.4784739,256 8,251.527965 8,246.006691 L8,6 L308,6 L308,246.006691 C308,251.525843 303.526348,256 297.997049,256 L294.221764,256 C294.359841,255.405409 294.432836,254.785856 294.432836,254.149254 C294.432836,249.648545 290.784291,246 286.283582,246 C281.782874,246 278.134328,249.648545 278.134328,254.149254 C278.134328,254.785856 278.207324,255.405409 278.345401,256 Z" id="Combined-Shape" stroke="#657396" stroke-width="3" stroke-linejoin="round" fill="#FFFFFF"></path>
                <rect id="Rectangle-124" fill="#F7FAFF" x="12" y="10" width="292" height="14" rx="7"></rect>
                <g id="Group-20" transform="translate(278.000000, 246.000000)"></g>
            </g>
        </g>
    </g>
</svg>