<?xml version="1.0" encoding="UTF-8"?>
<svg width="22px" height="22px" viewBox="0 0 22 22" version="1.1" xmlns="http://www.w3.org/2000/svg" xmlns:xlink="http://www.w3.org/1999/xlink">
    <!-- Generator: Sketch 40.3 (33839) - http://www.bohemiancoding.com/sketch -->
    <title>Facebook</title>
    <desc>Created with Sketch.</desc>
    <defs></defs>
    <g id="Page-1" stroke="none" stroke-width="1" fill="none" fill-rule="evenodd">
        <g id="Desktop-HD" transform="translate(-925.000000, -2609.000000)" fill="#FFFFFF">
            <g id="Group-11" transform="translate(-90.000000, 2546.000000)">
                <g id="Group-8" transform="translate(971.000000, 62.000000)">
                    <path d="M65.1236061,20.9578404 C65.1236061,21.601716 64.601716,22.1236061 63.9578404,22.1236061 L58.5749488,22.1236061 L58.5749488,13.9431069 L61.3207701,13.9431069 L61.732183,10.7553763 L58.5749488,10.7553763 L58.5749488,8.72017716 C58.5749488,7.79723133 58.8315783,7.16774085 60.1550044,7.16774085 L61.8432357,7.16716545 L61.8432357,4.31604539 C61.5509312,4.27691801 60.5491552,4.19003221 59.3833895,4.19003221 C56.9494363,4.19003221 55.2830703,5.67572182 55.2830703,8.40428111 L55.2830703,10.7553763 L52.5303441,10.7553763 L52.5303441,13.9431069 L55.2830703,13.9431069 L55.2830703,22.1236061 L45.1657657,22.1236061 C44.5218902,22.1236061 44,21.601716 44,20.9578404 L44,2.16576574 C44,1.52189019 44.5218902,1 45.1657657,1 L63.9578404,1 C64.601716,1 65.1236061,1.52189019 65.1236061,2.16576574 L65.1236061,20.9578404" id="Facebook"></path>
                </g>
            </g>
        </g>
    </g>
</svg>