<?xml version="1.0" encoding="UTF-8"?>
<svg width="22px" height="20px" viewBox="0 0 22 20" version="1.1" xmlns="http://www.w3.org/2000/svg" xmlns:xlink="http://www.w3.org/1999/xlink">
    <!-- Generator: Sketch 40.3 (33839) - http://www.bohemiancoding.com/sketch -->
    <title>Linkedin</title>
    <desc>Created with Sketch.</desc>
    <defs></defs>
    <g id="Page-1" stroke="none" stroke-width="1" fill="none" fill-rule="evenodd">
        <g id="Desktop-HD" transform="translate(-967.000000, -2608.000000)" fill="#FFFFFF">
            <g id="Group-11" transform="translate(-90.000000, 2546.000000)">
                <g id="Group-8" transform="translate(971.000000, 62.000000)">
                    <path d="M86.5351245,6.18845534 L90.6722694,6.18845534 L90.6722694,19.2972782 L86.5351245,19.2972782 L86.5351245,6.18845534 Z M101.976054,6.06244217 C99.6059707,6.06244217 98.1208565,7.34616545 97.8463895,8.24551977 L97.8463895,6.18845534 L93.1988624,6.18845534 C93.2587042,7.28056955 93.1988624,19.2972782 93.1988624,19.2972782 L97.8463895,19.2972782 L97.8463895,12.2037145 C97.8463895,11.8089883 97.8279766,11.4148375 97.9476603,11.1323148 C98.2670088,10.3440132 98.9534641,9.52579063 100.187703,9.52579063 C101.801707,9.52579063 102.535346,10.738164 102.535346,12.5132811 L102.535346,19.2972782 L107.226603,19.2972782 L107.226603,12.0080776 C107.226603,7.9480366 104.916362,6.06244217 101.976054,6.06244217 Z M88.5271684,0 C86.9994744,0 86,0.981061493 86,2.27629283 C86,3.54678184 86.9712796,4.54855783 88.4684773,4.54855783 L88.4983982,4.54855783 C90.0537116,4.54855783 91.0221142,3.54275403 91.0221142,2.27284041 C90.9921933,0.978759883 90.0537116,0 88.5271684,0 Z" id="Linkedin"></path>
                </g>
            </g>
        </g>
    </g>
</svg>