<?xml version="1.0" encoding="UTF-8"?>
<svg width="22px" height="18px" viewBox="0 0 22 18" version="1.1" xmlns="http://www.w3.org/2000/svg" xmlns:xlink="http://www.w3.org/1999/xlink">
    <!-- Generator: Sketch 40.3 (33839) - http://www.bohemiancoding.com/sketch -->
    <title>Twitter</title>
    <desc>Created with Sketch.</desc>
    <defs></defs>
    <g id="Page-1" stroke="none" stroke-width="1" fill="none" fill-rule="evenodd">
        <g id="Desktop-HD" transform="translate(-1009.000000, -2610.000000)" fill="#FFFFFF">
            <g id="Group-11" transform="translate(-90.000000, 2546.000000)">
                <g id="Group-8" transform="translate(971.000000, 62.000000)">
                    <path d="M148.963545,2.33258272 C148.108496,2.8510205 147.163685,3.22848463 146.153854,3.43102635 C145.349441,2.55008492 144.199786,2 142.926996,2 C140.487288,2 138.507328,4.0300205 138.507328,6.53359736 C138.507328,6.88919619 138.545305,7.23443777 138.621258,7.5664451 C134.946736,7.37713763 131.689382,5.57382577 129.507455,2.82800439 C129.126539,3.50007467 128.909037,4.27916984 128.909037,5.10947584 C128.909037,6.68147584 129.689283,8.0699224 130.876338,8.88296633 C130.152482,8.86110102 129.469479,8.65453148 128.872211,8.31734553 L128.872211,8.37315959 C128.872211,10.5706223 130.396452,12.4032796 132.420719,12.8187204 C132.05016,12.9245944 131.658886,12.9781069 131.255529,12.9781069 C130.970704,12.9781069 130.692785,12.951063 130.423496,12.8975505 C130.98624,14.6979854 132.618082,16.009328 134.553161,16.0444275 C133.040428,17.2614041 131.132968,17.9864114 129.062094,17.9864114 C128.705344,17.9864114 128.352622,17.9656969 128.007381,17.9242679 C129.96375,19.2085666 132.288952,19.9594671 134.785048,19.9594671 C142.918365,19.9594671 147.364501,13.0517584 147.364501,7.06066618 C147.364501,6.86330307 147.361048,6.66593997 147.353568,6.47260469 C148.217247,5.83333236 148.967572,5.0352489 149.557936,4.12611274 C148.766182,4.48689019 147.913435,4.73086091 147.019259,4.83961201 C147.932423,4.27916984 148.633264,3.39074817 148.963545,2.33258272" id="Twitter"></path>
                </g>
            </g>
        </g>
    </g>
</svg>