<?xml version="1.0" encoding="UTF-8"?>
<svg width="24px" height="16px" viewBox="0 0 24 16" version="1.1" xmlns="http://www.w3.org/2000/svg" xmlns:xlink="http://www.w3.org/1999/xlink">
    <!-- Generator: Sketch 40.3 (33839) - http://www.bohemiancoding.com/sketch -->
    <title>Google+</title>
    <desc>Created with Sketch.</desc>
    <defs></defs>
    <g id="Page-1" stroke="none" stroke-width="1" fill="none" fill-rule="evenodd">
        <g id="Desktop-HD" transform="translate(-881.000000, -2612.000000)" fill="#FFFFFF">
            <g id="Group-11" transform="translate(-90.000000, 2546.000000)">
                <g id="Group-8" transform="translate(971.000000, 62.000000)">
                    <path d="M7.37493558,10.8600498 L7.37493558,13.7859722 C7.37493558,13.7859722 10.2082182,13.7819444 11.3619004,13.7819444 C10.7370132,15.6790469 9.76573353,16.7118946 7.37493558,16.7118946 C4.9553675,16.7118946 3.06689605,14.7468946 3.06689605,12.3227233 C3.06689605,9.89912738 4.9553675,7.93412738 7.37493558,7.93412738 C8.65405564,7.93412738 9.48033382,8.38466764 10.2381391,9.01243192 C10.8446135,8.40480673 10.793978,8.31792094 12.3372079,6.85812445 C11.0270161,5.66358858 9.28584773,4.93512884 7.37493558,4.93512884 C3.30223572,4.93512884 0,8.24254319 0,12.3227233 C0,16.4029034 3.30223572,19.7108931 7.37493558,19.7108931 C13.4626955,19.7108931 14.9506867,14.4005022 14.4575666,10.8600498 L7.37493558,10.8600498 Z M20.6638594,11.006202 L20.6638594,8.44623572 L18.8386823,8.44623572 L18.8386823,11.006202 L16.2096676,11.006202 L16.2096676,12.8348316 L18.8386823,12.8348316 L18.8386823,15.4684495 L20.6638594,15.4684495 L20.6638594,12.8348316 L23.2192225,12.8348316 L23.2192225,11.006202 L20.6638594,11.006202 Z" id="Google+"></path>
                </g>
            </g>
        </g>
    </g>
</svg>