<?xml version="1.0" encoding="UTF-8"?>
<svg width="310px" height="323px" viewBox="0 0 310 323" version="1.1" xmlns="http://www.w3.org/2000/svg" xmlns:xlink="http://www.w3.org/1999/xlink">
    <!-- Generator: Sketch 40.3 (33839) - http://www.bohemiancoding.com/sketch -->
    <title>Group 23</title>
    <desc>Created with Sketch.</desc>
    <defs></defs>
    <g id="Page-1" stroke="none" stroke-width="1" fill="none" fill-rule="evenodd">
        <g id="Desktop-HD" transform="translate(-811.000000, -778.000000)">
            <g id="Group-23" transform="translate(811.000000, 778.000000)">
                <g id="Group-10" transform="translate(0.000000, 94.000000)" fill="#F7FAFF">
                    <rect id="Rectangle-15" x="0" y="172.647328" width="292.765664" height="29.3575268" rx="14.6787634"></rect>
                    <rect id="Rectangle-15" x="14.2343358" y="113.932274" width="292.765664" height="29.3575268" rx="14.6787634"></rect>
                    <path d="M266.02435,143.669681 C264.952999,143.421169 263.83669,143.289801 262.689671,143.289801 L45.0797527,143.289801 C44.4058941,143.289801 43.7426505,143.335138 43.0929073,143.422926 C50.2590315,144.391959 55.783208,150.533498 55.783208,157.968564 C55.783208,165.402309 50.2650206,171.545415 43.0936101,172.514291 C43.7431427,172.602022 44.4061522,172.647328 45.0797527,172.647328 L262.689671,172.647328 C263.836826,172.647328 264.953218,172.515938 266.024612,172.267398 C259.523636,170.758366 254.679198,164.930541 254.679198,157.968564 C254.679198,151.007901 259.521885,145.178832 266.02435,143.669681 Z" id="Combined-Shape"></path>
                    <rect id="Rectangle-15" x="14.2343358" y="56.7150535" width="266.765664" height="29.3575268" rx="14.6787634"></rect>
                    <rect id="Rectangle-15" x="44.2495201" y="0" width="231.308523" height="29.3575268" rx="14.6787634"></rect>
                    <path d="M252.143923,29.3483461 C250.495542,28.7085085 248.702898,28.3575268 246.828213,28.3575268 L72.2765537,28.3575268 C70.8150074,28.3575268 69.4036913,28.5705499 68.0718936,28.9672013 C74.1343861,30.7734541 78.5545043,36.3877 78.5545043,43.0362902 C78.5545043,49.6831762 74.1351596,55.29819 68.0728009,57.105039 C69.4046017,57.5019156 70.8156678,57.7150535 72.2765537,57.7150535 L246.828213,57.7150535 C248.704141,57.7150535 250.497318,57.3641127 252.145814,56.724387 C246.661443,54.5960197 242.773734,49.2709326 242.773734,43.0362902 C242.773734,36.802953 246.658548,31.4770826 252.143923,29.3483461 Z" id="Combined-Shape"></path>
                    <path d="M268.772954,86.3592523 C267.83527,86.1712231 266.865285,86.0725803 265.872262,86.0725803 L38.9720382,86.0725803 C38.4631627,86.0725803 37.9603004,86.0985282 37.4647049,86.1491745 C44.8664492,86.9044393 50.6412643,93.1522816 50.6412643,100.751344 C50.6412643,108.349099 44.8700843,114.598637 37.4644302,115.353602 C37.9600815,115.40419 38.4630333,115.430107 38.9720382,115.430107 L265.872262,115.430107 C266.865155,115.430107 267.835155,115.331324 268.772952,115.143039 C262.056409,113.795758 256.997021,107.865726 256.997021,100.751344 C256.997021,93.6377037 262.051251,87.7059433 268.772954,86.3592523 Z" id="Combined-Shape"></path>
                </g>
                <g id="Group-12" transform="translate(91.000000, 47.000000)">
                    <g id="Group-11">
                        <path d="M18.7544468,2.84217094e-14 L46.3220143,2.84217094e-14 C46.3220143,12.1944473 56.1959507,22.08 68.3760684,22.08 C80.5561861,22.08 90.4301224,12.1944473 90.4301224,4.92569137e-14 L119.835528,2.84217094e-14 C119.835528,8.12963152 126.418152,14.72 134.538231,14.72 C135.160633,14.72 135.774003,14.6812803 136.376068,14.6061155 L136.376068,211.713885 C135.774003,211.63872 135.160633,211.6 134.538231,211.6 C126.418152,211.6 119.835528,218.190368 119.835528,226.32 C119.835528,227.590702 119.99635,228.823799 120.298727,230 L90.1251941,230 C90.3257377,228.803233 90.4301224,227.573821 90.4301224,226.32 C90.4301224,214.125553 80.5561861,204.24 68.3760684,204.24 C56.1959507,204.24 46.3220143,214.125553 46.3220143,226.32 C46.3220143,227.573821 46.4263991,228.803233 46.6269426,230 L18.2912473,230 C18.5936249,228.823799 18.7544468,227.590702 18.7544468,226.32 C18.7544468,218.190368 12.1718225,211.6 4.05174405,211.6 C2.78253482,211.6 1.55088755,211.761011 0.376068376,212.063744 L0.376068376,14.2562557 C1.55088755,14.5589889 2.78253482,14.72 4.05174405,14.72 C12.1718225,14.72 18.7544468,8.12963152 18.7544468,2.30926389e-13 Z" id="Combined-Shape" stroke="#657396" stroke-width="3" stroke-linejoin="round" fill="#FFFFFF"></path>
                        <rect id="Rectangle-46" fill="#EBEFF8" x="18" y="190" width="99.5540541" height="3" rx="1.5"></rect>
                        <path d="M27.1205,41.759 L27.1205,39.887 L19.3465,39.887 L19.3465,41.759 L22.0635,41.759 L22.0635,49 L24.3775,49 L24.3775,41.759 L27.1205,41.759 Z M40.4225,49 L40.4225,39.9 L38.1085,39.9 L38.1085,49 L40.4225,49 Z M56.5065,39.822 C53.7375,39.822 51.6445,41.798 51.6445,44.424 C51.6445,47.089 53.6855,49.104 56.4285,49.104 C57.7675,49.104 59.2105,48.441 60.1855,47.44 L58.8335,46.01 C58.1965,46.66 57.3125,47.076 56.5455,47.076 C55.1025,47.076 54.0105,45.919 54.0105,44.398 C54.0105,42.903 55.1025,41.759 56.5455,41.759 C57.3515,41.759 58.2355,42.214 58.8335,42.942 L60.1725,41.356 C59.2625,40.42 57.8585,39.822 56.5065,39.822 L56.5065,39.822 Z M77.1665,49 L79.9355,49 L76.3345,43.67 L79.7145,39.9 L77.0365,39.9 L73.5525,43.839 L73.5525,39.9 L71.2385,39.9 L71.2385,49 L73.5525,49 L73.5525,46.764 L74.7615,45.425 L77.1665,49 Z M98.0735,41.72 L98.0735,39.9 L90.9495,39.9 L90.9495,49 L98.2165,49 L98.2165,47.18 L93.2635,47.18 L93.2635,45.347 L97.6055,45.347 L97.6055,43.527 L93.2635,43.527 L93.2635,41.72 L98.0735,41.72 Z M116.6665,41.759 L116.6665,39.887 L108.8925,39.887 L108.8925,41.759 L111.6095,41.759 L111.6095,49 L113.9235,49 L113.9235,41.759 L116.6665,41.759 Z" id="TICKET" fill="#657396"></path>
                        <rect id="Rectangle-46" fill="#EBEFF8" x="18" y="82" width="99.5540541" height="22.464" rx="11.232"></rect>
                        <rect id="Rectangle-46" fill="#EBEFF8" x="18" y="119" width="99.5540541" height="22.464" rx="11.232"></rect>
                        <rect id="Rectangle-46" fill="#EBEFF8" x="18" y="155" width="99.5540541" height="22.464" rx="11.232"></rect>
                    </g>
                    <path d="M69,114.552293 C76.1797017,114.552293 82,108.756762 82,101.607612 C74.8840764,101.527337 72.4311523,101.555588 69,101.607612 C65.5089752,101.622434 63.7615346,101.602509 56,101.607612 C56,108.756762 61.8202983,114.552293 69,114.552293 Z" id="Oval-15" stroke="#657396" stroke-width="3" stroke-linejoin="round" fill="#FF8C82"></path>
                    <ellipse id="Oval-16" fill="#657396" cx="37" cy="92.5957447" rx="4" ry="3.98297872"></ellipse>
                    <rect id="Rectangle-51" fill="#EBEFF8" x="29" y="62" width="17" height="6.97021277" rx="3.48510638"></rect>
                    <rect id="Rectangle-51" fill="#EBEFF8" x="93" y="62" width="17" height="6.97021277" rx="3.48510638"></rect>
                    <path d="M100,96.5787234 C102.209139,96.5787234 104,94.7954831 104,92.5957447 C104,90.3960063 102.209139,88.612766 100,88.612766 C97.790861,88.612766 96,90.3960063 96,92.5957447 C96,94.7954831 97.790861,96.5787234 100,96.5787234 Z" id="Oval-16" fill="#657396"></path>
                </g>
                <path d="M128.40625,8.59375 L128.40625,3.90625 C128.40625,1.75795145 126.657362,0 124.5,0 C122.347027,0 120.59375,1.7488877 120.59375,3.90625 L120.59375,8.59375 L115.90625,8.59375 C113.757951,8.59375 112,10.3426377 112,12.5 C112,14.6529725 113.748888,16.40625 115.90625,16.40625 L120.59375,16.40625 L120.59375,21.09375 C120.59375,23.2420485 122.342638,25 124.5,25 C126.652973,25 128.40625,23.2511123 128.40625,21.09375 L128.40625,16.40625 L133.09375,16.40625 C135.242049,16.40625 137,14.6573623 137,12.5 C137,10.3470275 135.251112,8.59375 133.09375,8.59375 L128.40625,8.59375 Z" id="Combined-Shape" fill="#E1E9FB"></path>
                <path d="M207.1875,17.8125 L207.1875,15.1875 C207.1875,13.9844528 206.208123,13 205,13 C203.783454,13 202.8125,13.9793771 202.8125,15.1875 L202.8125,17.8125 L200.1875,17.8125 C198.984453,17.8125 198,18.7918771 198,20 C198,21.2165457 198.979377,22.1875 200.1875,22.1875 L202.8125,22.1875 L202.8125,24.8125 C202.8125,26.0155472 203.791877,27 205,27 C206.216546,27 207.1875,26.0206229 207.1875,24.8125 L207.1875,22.1875 L209.8125,22.1875 C211.015547,22.1875 212,21.2081229 212,20 C212,18.7834543 211.020623,17.8125 209.8125,17.8125 L207.1875,17.8125 Z" id="Combined-Shape" fill="#E1E9FB"></path>
                <path d="M123.75,278.193359 C123.75,278.193359 125.464844,305.363281 100.580078,296.908203" id="Path-34" stroke="#657396" stroke-width="3" stroke-linecap="round"></path>
                <path d="M198.160156,277.388672 C198.160156,277.388672 210.982422,287.255859 210.982422,305.382812" id="Path-35" stroke="#657396" stroke-width="3" stroke-linecap="round"></path>
                <rect id="Rectangle-51" fill="#657396" transform="translate(95.998867, 301.338520) rotate(19.000000) translate(-95.998867, -301.338520) " x="91.4988674" y="289.83852" width="9" height="23" rx="4.5"></rect>
                <rect id="Rectangle-51" fill="#657396" transform="translate(217.500000, 309.500000) rotate(-90.000000) translate(-217.500000, -309.500000) " x="213" y="298" width="9" height="23" rx="4.5"></rect>
                <path d="M90.7226562,180.347656 C90.7226562,180.347656 71.2480469,174.916016 62.0117188,194.888672" id="Path-36" stroke="#657396" stroke-width="3" stroke-linecap="round"></path>
                <circle id="Oval-18" fill="#657396" cx="60" cy="199" r="6"></circle>
                <circle id="Oval-18" fill="#657396" cx="264" cy="178" r="6"></circle>
                <path d="M258.710938,175.674122 C258.710938,175.674122 239.236328,170.242482 230,190.215138" id="Path-36" stroke="#657396" stroke-width="3" stroke-linecap="round" transform="translate(244.355469, 182.607569) scale(1, -1) rotate(28.000000) translate(-244.355469, -182.607569) "></path>
                <path d="M9.5,315.5 L306.5,315.5" id="Line" stroke="#657396" stroke-width="3" stroke-linecap="round"></path>
                <path d="M9.5,320 L306.5,320" id="Line" stroke="#EBEFF8" stroke-width="6" stroke-linecap="round"></path>
                <path d="M72.5,62.5 L40.5,62.5" id="Line" stroke="#EBEFF8" stroke-width="3" stroke-linecap="round"></path>
                <path d="M26.5,62.5 L18.5,62.5" id="Line" stroke="#EBEFF8" stroke-width="3" stroke-linecap="round"></path>
                <path d="M55.5,76 L28,76" id="Line" stroke="#EBEFF8" stroke-width="3" stroke-linecap="round"></path>
                <path d="M45.5,129.5 L2.5,129.5" id="Line" stroke="#EBEFF8" stroke-width="3" stroke-linecap="round"></path>
                <path d="M47.5,142 L30.5,142" id="Line" stroke="#EBEFF8" stroke-width="3" stroke-linecap="round"></path>
                <path d="M58.5,142 L63.5,142" id="Line" stroke="#EBEFF8" stroke-width="3" stroke-linecap="round"></path>
                <path d="M33.5,105 L14.5,105" id="Line" stroke="#EBEFF8" stroke-width="3" stroke-linecap="round"></path>
                <path d="M26.5,193 L7.5,193" id="Line" stroke="#EBEFF8" stroke-width="3" stroke-linecap="round"></path>
                <path d="M26.5,253 L7.5,253" id="Line" stroke="#EBEFF8" stroke-width="3" stroke-linecap="round"></path>
                <path d="M221.5,67.5 L221.5,251.5" id="Line" stroke="#EBEFF8" stroke-width="3" stroke-linecap="round"></path>
                <path d="M97.5,67.5 L97.5,251.5" id="Line" stroke="#EBEFF8" stroke-width="3" stroke-linecap="round"></path>
            </g>
        </g>
    </g>
</svg>