<?xml version="1.0" encoding="UTF-8"?>
<svg width="519px" height="330px" viewBox="0 0 519 330" version="1.1" xmlns="http://www.w3.org/2000/svg" xmlns:xlink="http://www.w3.org/1999/xlink">
    <!-- Generator: Sketch 40.3 (33839) - http://www.bohemiancoding.com/sketch -->
    <title>Group 24</title>
    <desc>Created with Sketch.</desc>
    <defs>
        <rect id="path-1" x="226.867257" y="66.7317073" width="150.132743" height="104.268293" rx="10"></rect>
        <mask id="mask-2" maskContentUnits="userSpaceOnUse" maskUnits="objectBoundingBox" x="0" y="0" width="150.132743" height="104.268293" fill="white">
            <use xlink:href="#path-1"></use>
        </mask>
        <rect id="path-3" x="229.369469" y="75.0731707" width="138.455752" height="88.002439"></rect>
        <mask id="mask-4" maskContentUnits="userSpaceOnUse" maskUnits="objectBoundingBox" x="0" y="0" width="138.455752" height="88.002439" fill="white">
            <use xlink:href="#path-3"></use>
        </mask>
        <rect id="path-5" x="0" y="62.5609756" width="58.3849558" height="108.439024" rx="10"></rect>
        <mask id="mask-6" maskContentUnits="userSpaceOnUse" maskUnits="objectBoundingBox" x="0" y="0" width="58.3849558" height="108.439024" fill="white">
            <use xlink:href="#path-5"></use>
        </mask>
        <rect id="path-7" x="5.83849558" y="72.5707317" width="46.7079646" height="88.002439"></rect>
        <mask id="mask-8" maskContentUnits="userSpaceOnUse" maskUnits="objectBoundingBox" x="0" y="0" width="46.7079646" height="88.002439" fill="white">
            <use xlink:href="#path-7"></use>
        </mask>
        <rect id="path-9" x="68.3938053" y="0" width="229.369469" height="171" rx="10"></rect>
        <mask id="mask-10" maskContentUnits="userSpaceOnUse" maskUnits="objectBoundingBox" x="0" y="0" width="229.369469" height="171" fill="white">
            <use xlink:href="#path-9"></use>
        </mask>
        <rect id="path-11" x="80.0707965" y="11.6780488" width="206.015487" height="152.770111"></rect>
        <mask id="mask-12" maskContentUnits="userSpaceOnUse" maskUnits="objectBoundingBox" x="0" y="0" width="206.015487" height="152.770111" fill="white">
            <use xlink:href="#path-11"></use>
        </mask>
        <rect id="path-13" x="46.7079646" y="155.15122" width="271.90708" height="15.8487805" rx="7.92439024"></rect>
        <mask id="mask-14" maskContentUnits="userSpaceOnUse" maskUnits="objectBoundingBox" x="0" y="0" width="271.90708" height="15.8487805" fill="white">
            <use xlink:href="#path-13"></use>
        </mask>
        <rect id="path-15" x="152.634956" y="155.15122" width="60.8871681" height="9.88842572" rx="4.94421286"></rect>
        <mask id="mask-16" maskContentUnits="userSpaceOnUse" maskUnits="objectBoundingBox" x="0" y="0" width="60.8871681" height="9.88842572" fill="white">
            <use xlink:href="#path-15"></use>
        </mask>
        <rect id="path-17" x="4" y="0" width="21" height="46" rx="10.5"></rect>
        <mask id="mask-18" maskContentUnits="userSpaceOnUse" maskUnits="objectBoundingBox" x="0" y="0" width="21" height="46" fill="white">
            <use xlink:href="#path-17"></use>
        </mask>
    </defs>
    <g id="Page-1" stroke="none" stroke-width="1" fill="none" fill-rule="evenodd">
        <g id="Desktop-HD" transform="translate(-618.000000, -1965.000000)">
            <g id="Group-24" transform="translate(618.000000, 1965.000000)">
                <g id="Group-10" transform="translate(0.000000, 52.000000)" fill="#F7FAFF">
                    <rect id="Rectangle-15" x="0" y="195.610273" width="478.724311" height="33.2622224" rx="16.6311112"></rect>
                    <rect id="Rectangle-15" x="23.2756892" y="129.085828" width="478.724311" height="33.2622224" rx="16.6311112"></rect>
                    <path d="M435.001757,162.34805 L70.454267,162.34805 L74.5793044,162.34805 C83.767243,162.34805 91.2155388,169.792033 91.2155388,178.979161 C91.2155388,188.164271 83.7652091,195.610273 74.5793044,195.610273 L70.454267,195.610273 L435.001757,195.610273 L433.074599,195.610273 C423.890941,195.610273 416.446115,188.16629 416.446115,178.979161 C416.446115,169.794052 423.888114,162.34805 433.074599,162.34805 L435.001757,162.34805 Z" id="Combined-Shape"></path>
                    <rect id="Rectangle-15" x="23.2756892" y="64.258435" width="436.209653" height="33.2622224" rx="16.6311112"></rect>
                    <rect id="Rectangle-15" x="72.3558928" y="0" width="378.230875" height="33.2622224" rx="16.6311112"></rect>
                    <path d="M412.309597,32.1799551 C411.877962,32.1463397 411.4417,32.1292175 411.00144,32.1292175 L111.305501,32.1292175 L111.81898,32.1292175 C121.004418,32.1292175 128.450688,39.5732001 128.450688,48.7603287 C128.450688,57.9454378 121.005087,65.39144 111.81898,65.39144 L111.305501,65.39144 L411.00144,65.39144 C411.441336,65.39144 411.877279,65.3743032 412.308636,65.3406599 C403.730891,64.6731039 396.978548,57.5066598 396.978548,48.7603287 C396.978548,40.0156768 403.732968,32.8473388 412.309597,32.1799551 Z" id="Combined-Shape"></path>
                    <path d="M439.485048,97.5206575 L61.2746533,97.5206575 L66.1820473,97.5206575 C75.3640532,97.5206575 82.8075397,104.96464 82.8075397,114.151769 C82.8075397,123.336878 75.3705793,130.78288 66.1820473,130.78288 L61.2746533,130.78288 L439.485048,130.78288 L436.86231,130.78288 C427.679947,130.78288 420.236171,123.338897 420.236171,114.151769 C420.236171,104.96666 427.688284,97.5206575 436.86231,97.5206575 L439.485048,97.5206575 Z" id="Combined-Shape"></path>
                </g>
                <path d="M155.5,32 C163.508129,32 170,25.5081289 170,17.5 C170,9.49187113 163.508129,3 155.5,3 C147.491871,3 141,9.49187113 141,17.5 C141,25.5081289 147.491871,32 155.5,32 Z" id="Oval-93" fill="#E1E9FB"></path>
                <path d="M512,164 C515.865993,164 519,160.865993 519,157 C519,153.134007 515.865993,150 512,150 C508.134007,150 505,153.134007 505,157 C505,160.865993 508.134007,164 512,164 Z" id="Oval-93" fill="#E1E9FB"></path>
                <path d="M342.71875,9.28125 L342.71875,4.21875 C342.71875,1.89858757 340.829951,0 338.5,0 C336.17479,0 334.28125,1.88879871 334.28125,4.21875 L334.28125,9.28125 L329.21875,9.28125 C326.898588,9.28125 325,11.1700487 325,13.5 C325,15.8252103 326.888799,17.71875 329.21875,17.71875 L334.28125,17.71875 L334.28125,22.78125 C334.28125,25.1014124 336.170049,27 338.5,27 C340.82521,27 342.71875,25.1112013 342.71875,22.78125 L342.71875,17.71875 L347.78125,17.71875 C350.101412,17.71875 352,15.8299513 352,13.5 C352,11.1747897 350.111201,9.28125 347.78125,9.28125 L342.71875,9.28125 Z" id="Combined-Shape" fill="#FBCED5"></path>
                <path d="M32.359375,53.140625 L32.359375,50.609375 C32.359375,49.4492938 31.4149756,48.5 30.25,48.5 C29.0769024,48.5 28.140625,49.4443994 28.140625,50.609375 L28.140625,53.140625 L25.609375,53.140625 C24.4492938,53.140625 23.5,54.0850244 23.5,55.25 C23.5,56.4230976 24.4443994,57.359375 25.609375,57.359375 L28.140625,57.359375 L28.140625,59.890625 C28.140625,61.0507062 29.0850244,62 30.25,62 C31.4230976,62 32.359375,61.0556006 32.359375,59.890625 L32.359375,57.359375 L34.890625,57.359375 C36.0507062,57.359375 37,56.4149756 37,55.25 C37,54.0769024 36.0556006,53.140625 34.890625,53.140625 L32.359375,53.140625 Z" id="Combined-Shape" fill="#FBCED5"></path>
                <path d="M496.5,83.5 L496.5,80.5 C496.5,79.1250889 495.380712,78 494,78 C492.609662,78 491.5,79.1192881 491.5,80.5 L491.5,83.5 L488.5,83.5 C487.125089,83.5 486,84.6192881 486,86 C486,87.3903379 487.119288,88.5 488.5,88.5 L491.5,88.5 L491.5,91.5 C491.5,92.8749111 492.619288,94 494,94 C495.390338,94 496.5,92.8807119 496.5,91.5 L496.5,88.5 L499.5,88.5 C500.874911,88.5 502,87.3807119 502,86 C502,84.6096621 500.880712,83.5 499.5,83.5 L496.5,83.5 Z" id="Combined-Shape" fill="#E1E9FB"></path>
                <g id="Group-19" transform="translate(65.000000, 119.000000)">
                    <use id="Rectangle-7" stroke="#657396" mask="url(#mask-2)" stroke-width="6" fill="#FFFFFF" xlink:href="#path-1"></use>
                    <use id="Rectangle-7" stroke="#657396" mask="url(#mask-4)" stroke-width="6" fill="#FBFCFF" xlink:href="#path-3"></use>
                    <rect id="Rectangle-15" fill="#EBEFF8" x="283.584071" y="80.9121951" width="78.1110559" height="10.0097561" rx="3"></rect>
                    <rect id="Rectangle-15" fill="#EBEFF8" x="283.584071" y="96.7609756" width="78.1110559" height="45.0439024" rx="3"></rect>
                    <rect id="Rectangle-15" fill="#EBEFF8" x="283.584071" y="147.643902" width="78.1110559" height="10.0097561" rx="3"></rect>
                    <use id="Rectangle-7" stroke="#657396" mask="url(#mask-6)" stroke-width="6" fill="#FFFFFF" xlink:href="#path-5"></use>
                    <use id="Rectangle-7" stroke="#657396" mask="url(#mask-8)" stroke-width="6" fill="#FBFCFF" xlink:href="#path-7"></use>
                    <use id="Rectangle-7" stroke="#657396" mask="url(#mask-10)" stroke-width="6" fill="#FFFFFF" xlink:href="#path-9"></use>
                    <use id="Rectangle-7" stroke="#657396" mask="url(#mask-12)" stroke-width="6" fill="#FBFDFF" xlink:href="#path-11"></use>
                    <rect id="Rectangle-15" fill="#EBEFF8" x="96.7522124" y="26.6926829" width="54.2146018" height="10.0097561" rx="5.00487805"></rect>
                    <rect id="Rectangle-15" fill="#EBEFF8" x="11.6769912" y="78.4097561" width="35.0309735" height="10.0097561" rx="3"></rect>
                    <rect id="Rectangle-15" fill="#EBEFF8" x="11.6769912" y="94.2585366" width="35.0309735" height="45.0439024" rx="3"></rect>
                    <rect id="Rectangle-15" fill="#EBEFF8" x="11.6769912" y="145.141463" width="35.0309735" height="10.0097561" rx="3"></rect>
                    <rect id="Rectangle-15" fill="#EBEFF8" x="96.7522124" y="46.7121951" width="170.984513" height="10.0097561" rx="5.00487805"></rect>
                    <rect id="Rectangle-15" fill="#EBEFF8" x="97.5862832" y="66.7317073" width="53.380531" height="78.4097561" rx="4"></rect>
                    <rect id="Rectangle-15" fill="#EBEFF8" x="161.809735" y="66.7317073" width="105.926991" height="78.4097561" rx="4"></rect>
                    <rect id="Rectangle-15" fill="#EBEFF8" x="162.018252" y="26.6926829" width="26.4252835" height="10.0097561" rx="5.00487805"></rect>
                    <rect id="Rectangle-15" fill="#EBEFF8" x="201.769106" y="26.6926829" width="26.4252835" height="10.0097561" rx="5.00487805"></rect>
                    <rect id="Rectangle-15" fill="#EBEFF8" x="241.51996" y="26.6926829" width="26.4252835" height="10.0097561" rx="5.00487805"></rect>
                    <use id="Rectangle-7" stroke="#657396" mask="url(#mask-14)" stroke-width="6" stroke-linecap="round" stroke-linejoin="round" fill="#FFFFFF" xlink:href="#path-13"></use>
                    <use id="Rectangle-7" stroke="#657396" mask="url(#mask-16)" stroke-width="6" fill="#FFFFFF" xlink:href="#path-15"></use>
                    <path d="M24.6050885,68.8170732 L33.7798673,68.8170732" id="Line" stroke="#EAEEF7" stroke-width="3" stroke-linecap="round"></path>
                </g>
                <path d="M37.5,288.5 L467.5,288.5" id="Line" stroke="#657396" stroke-width="3" stroke-linecap="round"></path>
                <path d="M37.5,293 L467.5,293" id="Line" stroke="#EBEFF8" stroke-width="6" stroke-linecap="round"></path>
                <circle id="Oval-73" stroke="#657396" stroke-width="3" fill="#FFFFFF" cx="115" cy="103" r="50"></circle>
                <circle id="Oval-73" fill="#EBEFF8" cx="115" cy="103" r="40"></circle>
                <circle id="Oval-73" stroke="#657396" stroke-width="3" fill="#FFFFFF" cx="247" cy="53" r="50"></circle>
                <g id="Group-18" transform="translate(183.000000, 173.000000)">
                    <path d="M42.90625,123.289062 C42.90625,123.289062 35.3867188,132.244141 35.3867188,146.914062" id="Path-111" stroke="#657396" stroke-width="3" stroke-linecap="round"></path>
                    <rect id="Rectangle-51" fill="#657396" transform="translate(33.038882, 151.135515) rotate(54.000000) translate(-33.038882, -151.135515) " x="29.9514309" y="143.245363" width="6.17490167" height="15.7803043" rx="3.08745084"></rect>
                    <path d="M93.1474609,123 C93.1474609,123 85,126.555664 85,141.225586" id="Path-111" stroke="#657396" stroke-width="3" stroke-linecap="round" transform="translate(89.073730, 132.112793) scale(-1, 1) translate(-89.073730, -132.112793) "></path>
                    <rect id="Rectangle-51" fill="#657396" transform="translate(96.740994, 145.886492) scale(-1, 1) rotate(70.000000) translate(-96.740994, -145.886492) " x="93.6535432" y="137.99634" width="6.17490167" height="15.7803043" rx="3.08745084"></rect>
                    <g id="Group-17">
                        <g id="Group-12" transform="translate(27.000000, 0.000000)">
                            <g id="Group-11">
                                <path d="M9.99324535,4.26325641e-14 L24.6825332,4.26325641e-14 C24.6825332,6.52137833 29.9438277,11.808 36.4339634,11.808 C42.9240992,11.808 48.1853937,6.52137833 48.1853937,5.68434189e-14 L63.8539674,4.26325641e-14 C63.8539674,4.34758555 67.3614971,7.872 71.6882542,7.872 C72.0198995,7.872 72.3467317,7.85129336 72.6675401,7.81109655 L72.6675401,113.220903 C72.3467317,113.180707 72.0198995,113.16 71.6882542,113.16 C67.3614971,113.16 63.8539674,116.684414 63.8539674,121.032 C63.8539674,121.71155 63.9396608,122.370988 64.1007817,123 L48.0229136,123 C48.1297726,122.35999 48.1853937,121.702522 48.1853937,121.032 C48.1853937,114.510622 42.9240992,109.224 36.4339634,109.224 C29.9438277,109.224 24.6825332,114.510622 24.6825332,121.032 C24.6825332,121.702522 24.7381543,122.35999 24.8450132,123 L9.74643107,123 C9.90755196,122.370988 9.99324535,121.71155 9.99324535,121.032 C9.99324535,116.684414 6.48571566,113.16 2.15895851,113.16 C1.48266454,113.16 0.826385337,113.246106 0.200386799,113.408002 L0.200386799,7.62399759 C0.826385337,7.78589409 1.48266454,7.872 2.15895851,7.872 C6.48571566,7.872 9.99324535,4.34758555 9.99324535,2.10498285e-13 Z" id="Combined-Shape" stroke="#657396" stroke-width="3" stroke-linejoin="round" fill="#FFFFFF"></path>
                                <rect id="Rectangle-46" fill="#EBEFF8" x="9.59124088" y="101.608696" width="53.0470507" height="1.60434783" rx="0.802173913"></rect>
                                <path d="M14.4510693,22.331987 L14.4510693,21.3308739 L10.308719,21.3308739 L10.308719,22.331987 L11.7564635,22.331987 L11.7564635,26.2043478 L12.9894708,26.2043478 L12.9894708,22.331987 L14.4510693,22.331987 Z M21.5389964,26.2043478 L21.5389964,21.3378261 L20.3059891,21.3378261 L20.3059891,26.2043478 L21.5389964,26.2043478 Z M30.1093029,21.296113 C28.6338504,21.296113 27.5186022,22.3528435 27.5186022,23.7571826 C27.5186022,25.1823783 28.6061423,26.2599652 30.0677409,26.2599652 C30.7812226,26.2599652 31.5501204,25.9054043 32.069646,25.370087 L31.3492372,24.6053478 C31.0098139,24.9529565 30.5387774,25.1754261 30.1300839,25.1754261 C29.3611861,25.1754261 28.7793175,24.5566826 28.7793175,23.7432783 C28.7793175,22.9437783 29.3611861,22.331987 30.1300839,22.331987 C30.5595584,22.331987 31.0305949,22.575313 31.3492372,22.9646348 L32.062719,22.1164696 C31.5778285,21.615913 30.8297117,21.296113 30.1093029,21.296113 L30.1093029,21.296113 Z M41.1179161,26.2043478 L42.5933686,26.2043478 L40.6745876,23.3539565 L42.4756095,21.3378261 L41.048646,21.3378261 L39.192208,23.4443348 L39.192208,21.3378261 L37.9592007,21.3378261 L37.9592007,26.2043478 L39.192208,26.2043478 L39.192208,25.0085739 L39.8364197,24.2925 L41.1179161,26.2043478 Z M52.2581423,22.3111304 L52.2581423,21.3378261 L48.4621423,21.3378261 L48.4621423,26.2043478 L52.3343394,26.2043478 L52.3343394,25.2310435 L49.6951496,25.2310435 L49.6951496,24.250787 L52.0087701,24.250787 L52.0087701,23.2774826 L49.6951496,23.2774826 L49.6951496,22.3111304 L52.2581423,22.3111304 Z M62.1653613,22.331987 L62.1653613,21.3308739 L58.0230109,21.3308739 L58.0230109,22.331987 L59.4707555,22.331987 L59.4707555,26.2043478 L60.7037628,26.2043478 L60.7037628,22.331987 L62.1653613,22.331987 Z" id="TICKET" fill="#657396"></path>
                                <rect id="Rectangle-46" fill="#EBEFF8" x="9.59124088" y="43.8521739" width="53.0470507" height="12.0133565" rx="6.00667826"></rect>
                                <rect id="Rectangle-46" fill="#EBEFF8" x="9.59124088" y="63.6391304" width="53.0470507" height="12.0133565" rx="6.00667826"></rect>
                                <rect id="Rectangle-46" fill="#EBEFF8" x="9.59124088" y="82.8913043" width="53.0470507" height="12.0133565" rx="6.00667826"></rect>
                            </g>
                            <ellipse id="Oval-16" fill="#657396" cx="19.7160112" cy="49.5174122" rx="2.99089312" ry="2.98898593"></ellipse>
                            <rect id="Rectangle-51" fill="#EBEFF8" x="15.4525547" y="33.1565217" width="9.05839416" height="3.72754857" rx="1.86377428"></rect>
                            <rect id="Rectangle-51" fill="#EBEFF8" x="49.5547445" y="33.1565217" width="9.05839416" height="3.72754857" rx="1.86377428"></rect>
                            <path d="M53.2853543,52.5063981 C54.9371789,52.5063981 56.2762474,51.1681836 56.2762474,49.5174122 C56.2762474,47.8666409 54.9371789,46.5284263 53.2853543,46.5284263 C51.6335296,46.5284263 50.2944611,47.8666409 50.2944611,49.5174122 C50.2944611,51.1681836 51.6335296,52.5063981 53.2853543,52.5063981 Z" id="Oval-16" fill="#657396"></path>
                        </g>
                        <path d="M63.5,60.4978195 C66.5375661,60.4978195 69,58.045864 69,55.0212237 C65.9894169,54.9872614 64.9516414,54.9992137 63.5,55.0212237 C62.023028,55.0274946 61.2837262,55.0190648 58,55.0212237 C58,58.045864 60.4624339,60.4978195 63.5,60.4978195 Z" id="Oval-15" stroke="#657396" stroke-width="2" stroke-linejoin="round" fill="#FF8C82"></path>
                        <path d="M26.5,50.5 L6.5,23.5" id="Line" stroke="#657396" stroke-width="3" stroke-linecap="round"></path>
                        <path d="M120.5,50.5 L100.5,23.5" id="Line" stroke="#657396" stroke-width="3" stroke-linecap="round" transform="translate(110.500000, 37.000000) scale(-1, 1) translate(-110.500000, -37.000000) "></path>
                        <circle id="Oval-47" fill="#657396" cx="5" cy="21" r="5"></circle>
                        <circle id="Oval-47" fill="#657396" cx="122" cy="21" r="5"></circle>
                    </g>
                </g>
                <circle id="Oval-73" fill="#EBEFF8" cx="247" cy="53" r="40"></circle>
                <circle id="Oval-73" stroke="#657396" stroke-width="3" fill="#FFFFFF" cx="375" cy="103" r="50"></circle>
                <circle id="Oval-73" fill="#EBEFF8" cx="375" cy="103" r="40"></circle>
                <g id="Group-21" transform="translate(101.000000, 74.000000)" stroke="#657396">
                    <path d="M14.5,50.5 L14.5,57.5" id="Line" stroke-width="3" stroke-linecap="round" stroke-linejoin="round"></path>
                    <path d="M0,21.0121111 C12.7211782,21.3019899 17.1069996,20.9301136 29,21.0121111 L29,35.5014501 C29,43.5087781 22.5098896,50 14.5,50 L14.5,50 C6.49187113,50 0,43.5065554 0,35.5014501 L0,21.0121111 Z" id="Rectangle-147" stroke-width="3" stroke-linejoin="round"></path>
                    <use id="Rectangle-147" mask="url(#mask-18)" stroke-width="6" fill="#FFFFFF" xlink:href="#path-17"></use>
                    <path d="M5.5,24 L14.5,24" id="Line" stroke-width="2" stroke-linecap="round"></path>
                    <path d="M18.5,24 L22.5,24" id="Line" stroke-width="2" stroke-linecap="round"></path>
                </g>
                <g id="Group-22" transform="translate(224.000000, 33.000000)">
                    <path d="M17,1 L41.5,1" id="Line" stroke="#657396" stroke-width="3" stroke-linecap="round"></path>
                    <path d="M21.5,6 L34.5,6" id="Line" stroke="#FFFFFF" stroke-width="3" stroke-linecap="round"></path>
                    <path d="M-1.5,17.5 L28.5,23.5" id="Line" stroke="#657396" stroke-width="3" stroke-linecap="round" transform="translate(13.500000, 20.500000) rotate(-90.000000) translate(-13.500000, -20.500000) "></path>
                    <path d="M21.5,17.5 L51.5,23.5" id="Line" stroke="#657396" stroke-width="3" stroke-linecap="round" transform="translate(36.500000, 20.500000) rotate(-90.000000) translate(-36.500000, -20.500000) "></path>
                    <ellipse id="Oval-79" fill="#657396" cx="6" cy="35" rx="6" ry="5"></ellipse>
                    <ellipse id="Oval-79" fill="#657396" cx="29" cy="35" rx="6" ry="5"></ellipse>
                </g>
                <circle id="Oval-81" stroke="#657396" stroke-width="3" fill="#FFFFFF" cx="375" cy="103" r="24"></circle>
                <path d="M358.874512,85.671875 C358.874512,85.671875 364.237793,89.5083008 364.237793,103.043457 C364.237793,116.578613 359.347656,120.909668 359.347656,120.909668" id="Path-124" stroke="#657396" stroke-width="2"></path>
                <path d="M351.5,103 L398,103" id="Line" stroke="#657396" stroke-width="2" stroke-linecap="square"></path>
                <path d="M352.5,103 L399,103" id="Line" stroke="#657396" stroke-width="2" stroke-linecap="square" transform="translate(375.500000, 103.000000) rotate(-90.000000) translate(-375.500000, -103.000000) "></path>
                <path d="M386.874512,85.671875 C386.874512,85.671875 392.237793,89.5083008 392.237793,103.043457 C392.237793,116.578613 387.347656,120.909668 387.347656,120.909668" id="Path-124" stroke="#657396" stroke-width="2" transform="translate(389.556152, 103.290771) scale(-1, 1) translate(-389.556152, -103.290771) "></path>
                <path d="M405,157.169922 C405,157.169922 420.324219,152.974609 428.322266,133" id="Path-128" stroke="#EBEFF8" stroke-width="3" stroke-linecap="round"></path>
            </g>
        </g>
    </g>
</svg>